<svg width="28" height="29" viewBox="0 0 28 29" fill="none" xmlns="http://www.w3.org/2000/svg">
<ellipse cx="14" cy="14.4" rx="14" ry="14.4" fill="white"/>
<path d="M27.5 14.4C27.5 22.0901 21.4427 28.3 14 28.3C6.55734 28.3 0.5 22.0901 0.5 14.4C0.5 6.70987 6.55734 0.5 14 0.5C21.4427 0.5 27.5 6.70987 27.5 14.4Z" stroke="black" stroke-opacity="0.2"/>
<path d="M20.2071 11.2969C19.7881 11.4884 19.3458 11.6082 18.8802 11.68C19.3458 11.3927 19.7183 10.9377 19.8812 10.387C19.4389 10.6504 18.9501 10.8419 18.4146 10.9617C17.9956 10.5067 17.3904 10.2194 16.7386 10.2194C15.4815 10.2194 14.4572 11.2729 14.4572 12.5659C14.4572 12.7575 14.4805 12.9251 14.5271 13.0927C12.6415 12.9969 10.9421 12.0631 9.80141 10.6264C9.61518 10.9856 9.49878 11.3687 9.49878 11.7997C9.49878 12.6138 9.89453 13.3321 10.5231 13.7631C10.1506 13.7392 9.80141 13.6434 9.4755 13.4758V13.4997C9.4755 14.6491 10.267 15.6068 11.3145 15.8223C11.1283 15.8702 10.9188 15.8941 10.7093 15.8941C10.5696 15.8941 10.4067 15.8702 10.267 15.8463C10.5696 16.7801 11.4077 17.4745 12.4087 17.4745C11.6172 18.097 10.6395 18.4801 9.56862 18.4801C9.38239 18.4801 9.19616 18.4801 9.0332 18.4562C10.0575 19.1266 11.2447 19.5097 12.5483 19.5097C16.7618 19.5097 19.0665 15.9181 19.0665 12.8054C19.0665 12.7096 19.0665 12.5899 19.0665 12.4941C19.5088 12.1828 19.9045 11.7758 20.2071 11.2969Z" fill="black"/>
</svg>
