<svg width="28" height="29" viewBox="0 0 28 29" fill="none" xmlns="http://www.w3.org/2000/svg">
<ellipse cx="14" cy="14.4" rx="14" ry="14.4" fill="white"/>
<path d="M27.5 14.4C27.5 22.0901 21.4427 28.3 14 28.3C6.55734 28.3 0.5 22.0901 0.5 14.4C0.5 6.70987 6.55734 0.5 14 0.5C21.4427 0.5 27.5 6.70987 27.5 14.4Z" stroke="black" stroke-opacity="0.2"/>
<path d="M14.0008 8.68853C15.8095 8.68853 16.0237 8.6955 16.7382 8.72901C17.1678 8.73442 17.5933 8.81556 17.9962 8.9689C18.2884 9.08481 18.5538 9.26238 18.7753 9.49016C18.9967 9.71794 19.1694 9.99089 19.282 10.2914C19.4311 10.7059 19.51 11.1436 19.5153 11.5855C19.5475 12.3204 19.5546 12.5407 19.5546 14.4011C19.5546 16.2615 19.5479 16.4818 19.5153 17.2167C19.51 17.6586 19.4311 18.0963 19.282 18.5107C19.1694 18.8113 18.9967 19.0842 18.7753 19.312C18.5538 19.5398 18.2884 19.7174 17.9962 19.8333C17.5933 19.9866 17.1678 20.0678 16.7382 20.0732C16.024 20.1063 15.8098 20.1136 14.0008 20.1136C12.1917 20.1136 11.9775 20.1067 11.2633 20.0732C10.8337 20.0678 10.4082 19.9866 10.0053 19.8333C9.71307 19.7174 9.44769 19.5398 9.22624 19.312C9.00479 19.0842 8.83216 18.8113 8.71947 18.5107C8.57038 18.0963 8.4915 17.6586 8.48624 17.2167C8.45398 16.4818 8.44689 16.2615 8.44689 14.4011C8.44689 12.5407 8.45366 12.3204 8.48624 11.5855C8.4915 11.1436 8.57038 10.7059 8.71947 10.2914C8.83216 9.99089 9.00479 9.71794 9.22624 9.49016C9.44769 9.26238 9.71307 9.08481 10.0053 8.9689C10.4082 8.81556 10.8337 8.73442 11.2633 8.72901C11.9779 8.69583 12.192 8.68853 14.0008 8.68853ZM14.0008 7.43301C12.162 7.43301 11.9304 7.44098 11.2079 7.47482C10.6456 7.48632 10.0893 7.59582 9.56269 7.79865C9.11092 7.97373 8.70172 8.2481 8.36366 8.6026C8.01869 8.95045 7.75172 9.37157 7.5814 9.83655C7.3842 10.3782 7.27775 10.9504 7.26656 11.5287C7.2343 12.2713 7.22656 12.5095 7.22656 14.4008C7.22656 16.292 7.2343 16.5302 7.26721 17.2735C7.27839 17.8518 7.38485 18.4239 7.58205 18.9656C7.75218 19.4305 8.01892 19.8517 8.36366 20.1996C8.70191 20.5542 9.11133 20.8285 9.56334 21.0035C10.09 21.2064 10.6463 21.3159 11.2085 21.3274C11.9311 21.3605 12.1617 21.3692 14.0014 21.3692C15.8411 21.3692 16.0717 21.3612 16.7943 21.3274C17.3565 21.3159 17.9128 21.2064 18.4395 21.0035C18.8893 20.8242 19.2978 20.5502 19.6389 20.1992C19.98 19.8482 20.246 19.4278 20.4201 18.965C20.6173 18.4233 20.7238 17.8511 20.735 17.2728C20.7672 16.5302 20.775 16.292 20.775 14.4008C20.775 12.5095 20.7672 12.2713 20.7343 11.5281C20.7231 10.9497 20.6167 10.3776 20.4195 9.83589C20.2493 9.37097 19.9826 8.94985 19.6379 8.60194C19.2996 8.24735 18.8902 7.97298 18.4382 7.79799C17.9115 7.59516 17.3553 7.48566 16.793 7.47416C16.0711 7.44098 15.8395 7.43301 14.0008 7.43301Z" fill="black"/>
<path d="M14.0021 10.8241C13.3141 10.8241 12.6416 11.0339 12.0695 11.4271C11.4974 11.8203 11.0515 12.3791 10.7882 13.0329C10.5249 13.6867 10.4561 14.4062 10.5903 15.1002C10.7245 15.7943 11.0558 16.4319 11.5423 16.9323C12.0288 17.4327 12.6487 17.7735 13.3235 17.9115C13.9983 18.0496 14.6977 17.9787 15.3334 17.7079C15.969 17.4371 16.5123 16.9785 16.8946 16.3901C17.2768 15.8017 17.4809 15.1099 17.4809 14.4022C17.4809 13.4532 17.1144 12.5431 16.462 11.8721C15.8096 11.2011 14.9248 10.8241 14.0021 10.8241ZM14.0021 16.7248C13.5555 16.7248 13.119 16.5885 12.7476 16.3333C12.3763 16.0781 12.0869 15.7154 11.916 15.291C11.7451 14.8666 11.7003 14.3996 11.7875 13.9491C11.8746 13.4985 12.0897 13.0847 12.4055 12.7599C12.7213 12.4351 13.1236 12.2138 13.5616 12.1242C13.9996 12.0346 14.4537 12.0806 14.8663 12.2564C15.2789 12.4322 15.6315 12.7299 15.8797 13.1118C16.1278 13.4938 16.2602 13.9428 16.2602 14.4022C16.2602 15.0182 16.0223 15.6089 15.5988 16.0445C15.1754 16.4801 14.601 16.7248 14.0021 16.7248Z" fill="black"/>
<path d="M17.6176 11.518C18.0665 11.518 18.4305 11.1436 18.4305 10.6819C18.4305 10.2201 18.0665 9.84573 17.6176 9.84573C17.1686 9.84573 16.8047 10.2201 16.8047 10.6819C16.8047 11.1436 17.1686 11.518 17.6176 11.518Z" fill="black"/>
</svg>
