<svg width="28" height="29" viewBox="0 0 28 29" fill="none" xmlns="http://www.w3.org/2000/svg">
<ellipse cx="14" cy="14.4" rx="14" ry="14.4" fill="#F2C94C"/>
<path d="M27.5 14.4C27.5 22.0901 21.4427 28.3 14 28.3C6.55734 28.3 0.5 22.0901 0.5 14.4C0.5 6.70987 6.55734 0.5 14 0.5C21.4427 0.5 27.5 6.70987 27.5 14.4Z" stroke="black" stroke-opacity="0.2"/>
<path fill-rule="evenodd" clip-rule="evenodd" d="M14.6068 7.43301C11.0159 7.43301 8.12695 10.4045 8.12695 14.098C8.12695 17.0418 9.98992 19.5412 12.5549 20.4298C12.8789 20.4854 12.9869 20.291 12.9869 20.0966C12.9869 19.93 12.9869 19.5134 12.9869 18.958C11.1779 19.3745 10.7999 18.0693 10.7999 18.0693C10.5029 17.2917 10.0709 17.0973 10.0709 17.0973C9.47693 16.6808 10.1249 16.6808 10.1249 16.6808C10.7729 16.7363 11.1239 17.375 11.1239 17.375C11.6909 18.4026 12.6359 18.0971 13.0139 17.9304C13.0679 17.4861 13.2299 17.2084 13.4189 17.0418C11.9879 16.8751 10.4759 16.292 10.4759 13.737C10.4759 13.015 10.7189 12.404 11.1509 11.9597C11.0969 11.7931 10.8539 11.1266 11.2049 10.1823C11.2049 10.1823 11.7449 10.0157 12.9869 10.8766C13.4999 10.7378 14.0669 10.6544 14.6068 10.6544C15.1468 10.6544 15.7138 10.7378 16.2268 10.8766C17.4688 10.0157 18.0088 10.1823 18.0088 10.1823C18.3598 11.0988 18.1438 11.7653 18.0628 11.9597C18.4678 12.4318 18.7378 13.015 18.7378 13.737C18.7378 16.292 17.2258 16.8474 15.7678 17.014C16.0108 17.2084 16.1998 17.625 16.1998 18.2359C16.1998 19.1246 16.1998 19.8466 16.1998 20.0688C16.1998 20.2354 16.3078 20.4576 16.6588 20.4021C19.2238 19.5412 21.0867 17.0418 21.0867 14.098C21.0867 10.4045 18.1978 7.43301 14.6068 7.43301Z" fill="black"/>
</svg>
