<svg width="28" height="26" viewBox="0 0 28 26" fill="none" xmlns="http://www.w3.org/2000/svg">
<ellipse cx="14" cy="12.708" rx="14" ry="12.6372" fill="white"/>
<path d="M27.5 12.708C27.5 19.3642 21.5052 24.8451 14 24.8451C6.49475 24.8451 0.5 19.3642 0.5 12.708C0.5 6.05174 6.49475 0.570801 14 0.570801C21.5052 0.570801 27.5 6.05174 27.5 12.708Z" stroke="black" stroke-opacity="0.2"/>
<path d="M20.2071 9.98475C19.7881 10.1529 19.3458 10.2579 18.8802 10.321C19.3458 10.0688 19.7183 9.66956 19.8812 9.18626C19.4389 9.4174 18.9501 9.58551 18.4146 9.69057C17.9956 9.29132 17.3904 9.03917 16.7386 9.03917C15.4815 9.03917 14.4572 9.96374 14.4572 11.0984C14.4572 11.2665 14.4805 11.4136 14.5271 11.5607C12.6415 11.4767 10.9421 10.6572 9.80141 9.39639C9.61518 9.71158 9.49878 10.0478 9.49878 10.426C9.49878 11.1405 9.89453 11.7708 10.5231 12.1491C10.1506 12.1281 9.80141 12.044 9.4755 11.8969V11.9179C9.4755 12.9266 10.267 13.7671 11.3145 13.9562C11.1283 13.9982 10.9188 14.0192 10.7093 14.0192C10.5696 14.0192 10.4067 13.9982 10.267 13.9772C10.5696 14.7967 11.4077 15.4061 12.4087 15.4061C11.6172 15.9524 10.6395 16.2886 9.56862 16.2886C9.38239 16.2886 9.19616 16.2886 9.0332 16.2676C10.0575 16.856 11.2447 17.1922 12.5483 17.1922C16.7618 17.1922 19.0665 14.0402 19.0665 11.3086C19.0665 11.2245 19.0665 11.1194 19.0665 11.0354C19.5088 10.7622 19.9045 10.405 20.2071 9.98475Z" fill="black"/>
</svg>
