<svg width="28" height="29" viewBox="0 0 28 29" fill="none" xmlns="http://www.w3.org/2000/svg">
<ellipse cx="14" cy="14.5031" rx="14" ry="13.6814" fill="white"/>
<path d="M27.5 14.5031C27.5 21.7722 21.4668 27.6845 14 27.6845C6.53324 27.6845 0.5 21.7722 0.5 14.5031C0.5 7.23403 6.53324 1.32172 14 1.32172C21.4668 1.32172 27.5 7.23403 27.5 14.5031Z" stroke="black" stroke-opacity="0.2"/>
<path d="M20.2071 11.5549C19.7881 11.7369 19.3458 11.8507 18.8802 11.9189C19.3458 11.6459 19.7183 11.2137 19.8812 10.6904C19.4389 10.9407 18.9501 11.1227 18.4146 11.2364C17.9956 10.8042 17.3904 10.5312 16.7386 10.5312C15.4815 10.5312 14.4572 11.5322 14.4572 12.7606C14.4572 12.9426 14.4805 13.1019 14.5271 13.2611C12.6415 13.1701 10.9421 12.2829 9.80141 10.9179C9.61518 11.2592 9.49878 11.6232 9.49878 12.0327C9.49878 12.8061 9.89453 13.4886 10.5231 13.8981C10.1506 13.8753 9.80141 13.7844 9.4755 13.6251V13.6479C9.4755 14.7398 10.267 15.6498 11.3145 15.8545C11.1283 15.9 10.9188 15.9228 10.7093 15.9228C10.5696 15.9228 10.4067 15.9 10.267 15.8773C10.5696 16.7645 11.4077 17.4242 12.4087 17.4242C11.6172 18.0157 10.6395 18.3797 9.56862 18.3797C9.38239 18.3797 9.19616 18.3797 9.0332 18.357C10.0575 18.9939 11.2447 19.3579 12.5483 19.3579C16.7618 19.3579 19.0665 15.9455 19.0665 12.9881C19.0665 12.8971 19.0665 12.7834 19.0665 12.6924C19.5088 12.3966 19.9045 12.0099 20.2071 11.5549Z" fill="black"/>
</svg>
