<svg width="28" height="26" viewBox="0 0 28 26" fill="none" xmlns="http://www.w3.org/2000/svg">
<ellipse cx="14" cy="12.708" rx="14" ry="12.6372" fill="white"/>
<path d="M27.5 12.708C27.5 19.3642 21.5052 24.8451 14 24.8451C6.49475 24.8451 0.5 19.3642 0.5 12.708C0.5 6.05174 6.49475 0.570801 14 0.570801C21.5052 0.570801 27.5 6.05174 27.5 12.708Z" stroke="black" stroke-opacity="0.2"/>
<path d="M14.0008 7.69571C15.8095 7.69571 16.0237 7.70182 16.7382 7.73123C17.1678 7.73598 17.5933 7.80718 17.9962 7.94175C18.2884 8.04348 18.5538 8.1993 18.7753 8.3992C18.9967 8.59909 19.1694 8.83863 19.282 9.10239C19.4311 9.46611 19.51 9.85021 19.5153 10.238C19.5475 10.883 19.5546 11.0763 19.5546 12.7089C19.5546 14.3416 19.5479 14.5349 19.5153 15.1799C19.51 15.5677 19.4311 15.9518 19.282 16.3155C19.1694 16.5792 18.9967 16.8188 18.7753 17.0187C18.5538 17.2186 18.2884 17.3744 17.9962 17.4761C17.5933 17.6107 17.1678 17.6819 16.7382 17.6866C16.024 17.7158 15.8098 17.7222 14.0008 17.7222C12.1917 17.7222 11.9775 17.716 11.2633 17.6866C10.8337 17.6819 10.4082 17.6107 10.0053 17.4761C9.71307 17.3744 9.44769 17.2186 9.22624 17.0187C9.00479 16.8188 8.83216 16.5792 8.71947 16.3155C8.57038 15.9518 8.4915 15.5677 8.48624 15.1799C8.45398 14.5349 8.44689 14.3416 8.44689 12.7089C8.44689 11.0763 8.45366 10.883 8.48624 10.238C8.4915 9.85021 8.57038 9.46611 8.71947 9.10239C8.83216 8.83863 9.00479 8.59909 9.22624 8.3992C9.44769 8.1993 9.71307 8.04348 10.0053 7.94175C10.4082 7.80718 10.8337 7.73598 11.2633 7.73123C11.9779 7.70211 12.192 7.69571 14.0008 7.69571ZM14.0008 6.59389C12.162 6.59389 11.9304 6.60088 11.2079 6.63058C10.6456 6.64067 10.0893 6.73676 9.56269 6.91477C9.11092 7.06841 8.70172 7.30919 8.36366 7.62029C8.01869 7.92556 7.75172 8.29513 7.5814 8.70319C7.3842 9.17857 7.27775 9.68069 7.26656 10.1882C7.2343 10.8399 7.22656 11.0489 7.22656 12.7086C7.22656 14.3684 7.2343 14.5774 7.26721 15.2297C7.27839 15.7372 7.38485 16.2393 7.58205 16.7147C7.75218 17.1227 8.01892 17.4923 8.36366 17.7976C8.70191 18.1088 9.11133 18.3495 9.56334 18.5031C10.09 18.6811 10.6463 18.7772 11.2085 18.7873C11.9311 18.8164 12.1617 18.824 14.0014 18.824C15.8411 18.824 16.0717 18.817 16.7943 18.7873C17.3565 18.7772 17.9128 18.6811 18.4395 18.5031C18.8893 18.3457 19.2978 18.1053 19.6389 17.7972C19.98 17.4892 20.246 17.1203 20.4201 16.7141C20.6173 16.2387 20.7238 15.7366 20.735 15.2291C20.7672 14.5774 20.775 14.3684 20.775 12.7086C20.775 11.0489 20.7672 10.8399 20.7343 10.1876C20.7231 9.68011 20.6167 9.17798 20.4195 8.70261C20.2493 8.2946 19.9826 7.92503 19.6379 7.61971C19.2996 7.30853 18.8902 7.06775 18.4382 6.91418C17.9115 6.73618 17.3553 6.64009 16.793 6.62999C16.0711 6.60088 15.8395 6.59389 14.0008 6.59389Z" fill="black"/>
<path d="M14.0021 9.56982C13.3141 9.56982 12.6416 9.75399 12.0695 10.099C11.4974 10.4441 11.0515 10.9345 10.7882 11.5082C10.5249 12.082 10.4561 12.7134 10.5903 13.3225C10.7245 13.9316 11.0558 14.4911 11.5423 14.9303C12.0288 15.3694 12.6487 15.6685 13.3235 15.7896C13.9983 15.9108 14.6977 15.8486 15.3334 15.6109C15.969 15.3733 16.5123 14.9708 16.8946 14.4544C17.2768 13.938 17.4809 13.3309 17.4809 12.7099C17.4809 11.8771 17.1144 11.0784 16.462 10.4895C15.8096 9.90065 14.9248 9.56982 14.0021 9.56982ZM14.0021 14.7482C13.5555 14.7482 13.119 14.6286 12.7476 14.4046C12.3763 14.1807 12.0869 13.8623 11.916 13.4899C11.7451 13.1175 11.7003 12.7076 11.7875 12.3123C11.8746 11.9169 12.0897 11.5537 12.4055 11.2686C12.7213 10.9836 13.1236 10.7895 13.5616 10.7108C13.9996 10.6322 14.4537 10.6725 14.8663 10.8268C15.2789 10.9811 15.6315 11.2423 15.8797 11.5775C16.1278 11.9127 16.2602 12.3068 16.2602 12.7099C16.2602 13.2505 16.0223 13.7689 15.5988 14.1512C15.1754 14.5334 14.601 14.7482 14.0021 14.7482Z" fill="black"/>
<path d="M17.6176 10.1788C18.0665 10.1788 18.4305 9.85026 18.4305 9.44501C18.4305 9.03976 18.0665 8.71124 17.6176 8.71124C17.1686 8.71124 16.8047 9.03976 16.8047 9.44501C16.8047 9.85026 17.1686 10.1788 17.6176 10.1788Z" fill="black"/>
</svg>
