<svg width="28" height="29" viewBox="0 0 28 29" fill="none" xmlns="http://www.w3.org/2000/svg">
<ellipse cx="14" cy="14.5031" rx="14" ry="13.6814" fill="white"/>
<path d="M27.5 14.5031C27.5 21.7722 21.4668 27.6845 14 27.6845C6.53324 27.6845 0.5 21.7722 0.5 14.5031C0.5 7.23403 6.53324 1.32172 14 1.32172C21.4668 1.32172 27.5 7.23403 27.5 14.5031Z" stroke="black" stroke-opacity="0.2"/>
<path d="M14.0008 9.07673C15.8095 9.07673 16.0237 9.08335 16.7382 9.11519C17.1678 9.12033 17.5933 9.19742 17.9962 9.34311C18.2884 9.45324 18.5538 9.62194 18.7753 9.83835C18.9967 10.0548 19.1694 10.3141 19.282 10.5997C19.4311 10.9934 19.51 11.4093 19.5153 11.8291C19.5475 12.5273 19.5546 12.7367 19.5546 14.5042C19.5546 16.2718 19.5479 16.4811 19.5153 17.1793C19.51 17.5992 19.4311 18.015 19.282 18.4088C19.1694 18.6943 18.9967 18.9537 18.7753 19.1701C18.5538 19.3865 18.2884 19.5552 17.9962 19.6653C17.5933 19.811 17.1678 19.8881 16.7382 19.8932C16.024 19.9248 15.8098 19.9317 14.0008 19.9317C12.1917 19.9317 11.9775 19.9251 11.2633 19.8932C10.8337 19.8881 10.4082 19.811 10.0053 19.6653C9.71307 19.5552 9.44769 19.3865 9.22624 19.1701C9.00479 18.9537 8.83216 18.6943 8.71947 18.4088C8.57038 18.015 8.4915 17.5992 8.48624 17.1793C8.45398 16.4811 8.44689 16.2718 8.44689 14.5042C8.44689 12.7367 8.45366 12.5273 8.48624 11.8291C8.4915 11.4093 8.57038 10.9934 8.71947 10.5997C8.83216 10.3141 9.00479 10.0548 9.22624 9.83835C9.44769 9.62194 9.71307 9.45324 10.0053 9.34311C10.4082 9.19742 10.8337 9.12033 11.2633 9.11519C11.9779 9.08367 12.192 9.07673 14.0008 9.07673ZM14.0008 7.88387C12.162 7.88387 11.9304 7.89143 11.2079 7.92359C10.6456 7.93451 10.0893 8.03855 9.56269 8.23126C9.11092 8.3976 8.70172 8.65827 8.36366 8.99509C8.01869 9.32558 7.75172 9.72569 7.5814 10.1675C7.3842 10.6821 7.27775 11.2257 7.26656 11.7752C7.2343 12.4807 7.22656 12.707 7.22656 14.5039C7.22656 16.3008 7.2343 16.5271 7.26721 17.2333C7.27839 17.7827 7.38485 18.3263 7.58205 18.841C7.75218 19.2827 8.01892 19.6828 8.36366 20.0134C8.70191 20.3502 9.11133 20.6109 9.56334 20.7772C10.09 20.9699 10.6463 21.0739 11.2085 21.0849C11.9311 21.1164 12.1617 21.1246 14.0014 21.1246C15.8411 21.1246 16.0717 21.117 16.7943 21.0849C17.3565 21.0739 17.9128 20.9699 18.4395 20.7772C18.8893 20.6068 19.2978 20.3465 19.6389 20.013C19.98 19.6795 20.246 19.2801 20.4201 18.8403C20.6173 18.3257 20.7238 17.7821 20.735 17.2326C20.7672 16.5271 20.775 16.3008 20.775 14.5039C20.775 12.707 20.7672 12.4807 20.7343 11.7746C20.7231 11.2251 20.6167 10.6815 20.4195 10.1668C20.2493 9.72511 19.9826 9.32501 19.6379 8.99446C19.2996 8.65757 18.8902 8.39689 18.4382 8.23063C17.9115 8.03792 17.3553 7.93388 16.793 7.92296C16.0711 7.89143 15.8395 7.88387 14.0008 7.88387Z" fill="black"/>
<path d="M14.0021 11.1057C13.3141 11.1057 12.6416 11.3051 12.0695 11.6786C11.4974 12.0522 11.0515 12.5831 10.7882 13.2043C10.5249 13.8255 10.4561 14.509 10.5903 15.1685C10.7245 15.8279 11.0558 16.4337 11.5423 16.9091C12.0288 17.3845 12.6487 17.7083 13.3235 17.8395C13.9983 17.9707 14.6977 17.9033 15.3334 17.646C15.969 17.3887 16.5123 16.953 16.8946 16.3939C17.2768 15.8349 17.4809 15.1776 17.4809 14.5053C17.4809 13.6036 17.1144 12.739 16.462 12.1014C15.8096 11.4639 14.9248 11.1057 14.0021 11.1057ZM14.0021 16.7119C13.5555 16.7119 13.119 16.5825 12.7476 16.34C12.3763 16.0976 12.0869 15.7529 11.916 15.3497C11.7451 14.9465 11.7003 14.5028 11.7875 14.0748C11.8746 13.6467 12.0897 13.2535 12.4055 12.9449C12.7213 12.6363 13.1236 12.4261 13.5616 12.341C13.9996 12.2558 14.4537 12.2995 14.8663 12.4666C15.2789 12.6336 15.6315 12.9164 15.8797 13.2793C16.1278 13.6422 16.2602 14.0688 16.2602 14.5053C16.2602 15.0905 16.0223 15.6518 15.5988 16.0656C15.1754 16.4795 14.601 16.7119 14.0021 16.7119Z" fill="black"/>
<path d="M17.6176 11.765C18.0665 11.765 18.4305 11.4093 18.4305 10.9706C18.4305 10.5318 18.0665 10.1762 17.6176 10.1762C17.1686 10.1762 16.8047 10.5318 16.8047 10.9706C16.8047 11.4093 17.1686 11.765 17.6176 11.765Z" fill="black"/>
</svg>
