<svg width="28" height="26" viewBox="0 0 28 26" fill="none" xmlns="http://www.w3.org/2000/svg">
<ellipse cx="14" cy="12.708" rx="14" ry="12.6372" fill="#F2C94C"/>
<path d="M27.5 12.708C27.5 19.3642 21.5052 24.8451 14 24.8451C6.49475 24.8451 0.5 19.3642 0.5 12.708C0.5 6.05174 6.49475 0.570801 14 0.570801C21.5052 0.570801 27.5 6.05174 27.5 12.708Z" stroke="black" stroke-opacity="0.2"/>
<path fill-rule="evenodd" clip-rule="evenodd" d="M14.6068 6.59389C11.0159 6.59389 8.12695 9.20162 8.12695 12.443C8.12695 15.0264 9.98992 17.2198 12.5549 17.9997C12.8789 18.0484 12.9869 17.8778 12.9869 17.7072C12.9869 17.561 12.9869 17.1954 12.9869 16.708C11.1779 17.0735 10.7999 15.9281 10.7999 15.9281C10.5029 15.2457 10.0709 15.0751 10.0709 15.0751C9.47693 14.7095 10.1249 14.7095 10.1249 14.7095C10.7729 14.7583 11.1239 15.3188 11.1239 15.3188C11.6909 16.2205 12.6359 15.9525 13.0139 15.8062C13.0679 15.4163 13.2299 15.1726 13.4189 15.0264C11.9879 14.8801 10.4759 14.3683 10.4759 12.1262C10.4759 11.4925 10.7189 10.9563 11.1509 10.5664C11.0969 10.4202 10.8539 9.83527 11.2049 9.00665C11.2049 9.00665 11.7449 8.86042 12.9869 9.61593C13.4999 9.49407 14.0669 9.42096 14.6068 9.42096C15.1468 9.42096 15.7138 9.49407 16.2268 9.61593C17.4688 8.86042 18.0088 9.00665 18.0088 9.00665C18.3598 9.8109 18.1438 10.3958 18.0628 10.5664C18.4678 10.9807 18.7378 11.4925 18.7378 12.1262C18.7378 14.3683 17.2258 14.8558 15.7678 15.002C16.0108 15.1726 16.1998 15.5382 16.1998 16.0743C16.1998 16.8542 16.1998 17.4879 16.1998 17.6828C16.1998 17.8291 16.3078 18.024 16.6588 17.9753C19.2238 17.2198 21.0867 15.0264 21.0867 12.443C21.0867 9.20162 18.1978 6.59389 14.6068 6.59389Z" fill="black"/>
</svg>
