<svg width="28" height="29" viewBox="0 0 28 29" fill="none" xmlns="http://www.w3.org/2000/svg">
<ellipse cx="14" cy="14.5031" rx="14" ry="13.6814" fill="#F2C94C"/>
<path d="M27.5 14.5031C27.5 21.7722 21.4668 27.6845 14 27.6845C6.53324 27.6845 0.5 21.7722 0.5 14.5031C0.5 7.23403 6.53324 1.32172 14 1.32172C21.4668 1.32172 27.5 7.23403 27.5 14.5031Z" stroke="black" stroke-opacity="0.2"/>
<path fill-rule="evenodd" clip-rule="evenodd" d="M14.6068 7.88387C11.0159 7.88387 8.12695 10.7071 8.12695 14.2163C8.12695 17.0131 9.98992 19.3878 12.5549 20.2321C12.8789 20.2849 12.9869 20.1002 12.9869 19.9155C12.9869 19.7572 12.9869 19.3614 12.9869 18.8337C11.1779 19.2295 10.7999 17.9894 10.7999 17.9894C10.5029 17.2506 10.0709 17.0659 10.0709 17.0659C9.47693 16.6701 10.1249 16.6701 10.1249 16.6701C10.7729 16.7229 11.1239 17.3298 11.1239 17.3298C11.6909 18.306 12.6359 18.0158 13.0139 17.8575C13.0679 17.4353 13.2299 17.1714 13.4189 17.0131C11.9879 16.8548 10.4759 16.3007 10.4759 13.8733C10.4759 13.1873 10.7189 12.6068 11.1509 12.1846C11.0969 12.0263 10.8539 11.3931 11.2049 10.496C11.2049 10.496 11.7449 10.3377 12.9869 11.1556C13.4999 11.0237 14.0669 10.9445 14.6068 10.9445C15.1468 10.9445 15.7138 11.0237 16.2268 11.1556C17.4688 10.3377 18.0088 10.496 18.0088 10.496C18.3598 11.3667 18.1438 12 18.0628 12.1846C18.4678 12.6332 18.7378 13.1873 18.7378 13.8733C18.7378 16.3007 17.2258 16.8284 15.7678 16.9867C16.0108 17.1714 16.1998 17.5672 16.1998 18.1477C16.1998 18.992 16.1998 19.678 16.1998 19.8891C16.1998 20.0474 16.3078 20.2585 16.6588 20.2057C19.2238 19.3878 21.0867 17.0131 21.0867 14.2163C21.0867 10.7071 18.1978 7.88387 14.6068 7.88387Z" fill="black"/>
</svg>
