<svg width="32" height="16" viewBox="0 0 32 16" fill="none" xmlns="http://www.w3.org/2000/svg">
<rect x="4" width="24" height="16" rx="2" fill="#F5F5F5"/>
<path d="M11.9998 6.66666C11.2665 6.66666 10.6665 7.26666 10.6665 7.99999C10.6665 8.73332 11.2665 9.33332 11.9998 9.33332C12.7332 9.33332 13.3332 8.73332 13.3332 7.99999C13.3332 7.26666 12.7332 6.66666 11.9998 6.66666ZM19.9998 6.66666C19.2665 6.66666 18.6665 7.26666 18.6665 7.99999C18.6665 8.73332 19.2665 9.33332 19.9998 9.33332C20.7332 9.33332 21.3332 8.73332 21.3332 7.99999C21.3332 7.26666 20.7332 6.66666 19.9998 6.66666ZM15.9998 6.66666C15.2665 6.66666 14.6665 7.26666 14.6665 7.99999C14.6665 8.73332 15.2665 9.33332 15.9998 9.33332C16.7332 9.33332 17.3332 8.73332 17.3332 7.99999C17.3332 7.26666 16.7332 6.66666 15.9998 6.66666Z" fill="black" fill-opacity="0.56"/>
</svg>
