<svg width="20" height="20" viewBox="0 0 20 20" fill="none" xmlns="http://www.w3.org/2000/svg">
<g clip-path="url(#clip0_19_151)">
<path d="M20 10.0049C20 4.48203 15.5229 0.00488281 10 0.00488281C4.47715 0.00488281 0 4.48203 0 10.0049C0 14.9961 3.65684 19.1332 8.4375 19.8834V12.8955H5.89844V10.0049H8.4375V7.80176C8.4375 5.29551 9.93047 3.91113 12.2146 3.91113C13.3084 3.91113 14.4531 4.10645 14.4531 4.10645V6.56738H13.1922C11.95 6.56738 11.5625 7.33828 11.5625 8.12988V10.0049H14.3359L13.8926 12.8955H11.5625V19.8834C16.3432 19.1332 20 14.9961 20 10.0049Z" fill="#1D2130"/>
</g>
<defs>
<clipPath id="clip0_19_151">
<rect width="20" height="20" fill="white" transform="translate(0 0.00488281)"/>
</clipPath>
</defs>
</svg>
