<svg width="20" height="20" viewBox="0 0 20 20" fill="none" xmlns="http://www.w3.org/2000/svg">
<g clip-path="url(#clip0_19_155)">
<path d="M18.5195 0.00488281H1.47656C0.660156 0.00488281 0 0.649414 0 1.44629V18.5596C0 19.3564 0.660156 20.0049 1.47656 20.0049H18.5195C19.3359 20.0049 20 19.3564 20 18.5635V1.44629C20 0.649414 19.3359 0.00488281 18.5195 0.00488281ZM5.93359 17.0478H2.96484V7.50098H5.93359V17.0478ZM4.44922 6.2002C3.49609 6.2002 2.72656 5.43066 2.72656 4.48144C2.72656 3.53223 3.49609 2.7627 4.44922 2.7627C5.39844 2.7627 6.16797 3.53223 6.16797 4.48144C6.16797 5.42676 5.39844 6.2002 4.44922 6.2002ZM17.043 17.0478H14.0781V12.4072C14.0781 11.3018 14.0586 9.87598 12.5352 9.87598C10.9922 9.87598 10.7578 11.083 10.7578 12.3291V17.0478H7.79688V7.50098H10.6406V8.80566H10.6797C11.0742 8.05566 12.043 7.2627 13.4844 7.2627C16.4883 7.2627 17.043 9.23926 17.043 11.8096V17.0478Z" fill="#1D2130"/>
</g>
<defs>
<clipPath id="clip0_19_155">
<rect width="20" height="20" fill="white" transform="translate(0 0.00488281)"/>
</clipPath>
</defs>
</svg>
