<svg width="120" height="24" viewBox="0 0 120 24" fill="none" xmlns="http://www.w3.org/2000/svg">
<path d="M36.0547 18.7497V6.14993H38.3582V16.5897H43.9427V18.7497H36.0547Z" fill="black" fill-opacity="0.87"/>
<path d="M48.9163 19.0017C48.0553 19.0017 47.2816 18.8217 46.5952 18.4617C45.9088 18.1017 45.3678 17.5797 44.9722 16.8957C44.5767 16.2118 44.3789 15.3898 44.3789 14.4298V14.1418C44.3789 13.1818 44.5767 12.3598 44.9722 11.6758C45.3678 10.9918 45.9088 10.4698 46.5952 10.1098C47.2816 9.74989 48.0553 9.56989 48.9163 9.56989C49.7772 9.56989 50.5509 9.74989 51.2373 10.1098C51.9237 10.4698 52.4647 10.9918 52.8603 11.6758C53.2558 12.3598 53.4536 13.1818 53.4536 14.1418V14.4298C53.4536 15.3898 53.2558 16.2118 52.8603 16.8957C52.4647 17.5797 51.9237 18.1017 51.2373 18.4617C50.5509 18.8217 49.7772 19.0017 48.9163 19.0017ZM48.9163 16.9857C49.591 16.9857 50.1495 16.7637 50.5916 16.3198C51.0337 15.8637 51.2548 15.2157 51.2548 14.3758V14.1958C51.2548 13.3558 51.0337 12.7138 50.5916 12.2698C50.1611 11.8138 49.6027 11.5858 48.9163 11.5858C48.2415 11.5858 47.683 11.8138 47.2409 12.2698C46.7988 12.7138 46.5778 13.3558 46.5778 14.1958V14.3758C46.5778 15.2157 46.7988 15.8637 47.2409 16.3198C47.683 16.7637 48.2415 16.9857 48.9163 16.9857Z" fill="black" fill-opacity="0.87"/>
<path d="M54.2788 14.3218V14.0338C54.2788 13.0978 54.4591 12.2998 54.8198 11.6398C55.1805 10.9679 55.6575 10.4579 56.2508 10.1098C56.8558 9.74989 57.5131 9.56989 58.2228 9.56989C59.0139 9.56989 59.6131 9.71385 60.0203 10.0018C60.4275 10.2898 60.7242 10.5898 60.9103 10.9018H61.2245V9.82183H63.3885V20.3336C63.3885 20.9457 63.2139 21.4316 62.8649 21.7916C62.5158 22.1636 62.0505 22.3496 61.4688 22.3496H55.6749V20.3697H60.7009C61.0267 20.3697 61.1895 20.1897 61.1895 19.8296V17.5077H60.8754C60.7591 17.6997 60.5962 17.8977 60.3868 18.1017C60.1774 18.2937 59.8982 18.4557 59.5491 18.5877C59.2001 18.7197 58.758 18.7857 58.2228 18.7857C57.5131 18.7857 56.8558 18.6117 56.2508 18.2637C55.6575 17.9037 55.1805 17.3937 54.8198 16.7337C54.4591 16.0618 54.2788 15.2577 54.2788 14.3218ZM58.8511 16.8057C59.5259 16.8057 60.0901 16.5837 60.5439 16.1397C60.9976 15.6957 61.2245 15.0718 61.2245 14.2678V14.0878C61.2245 13.2718 60.9976 12.6478 60.5439 12.2158C60.1017 11.7718 59.5375 11.5498 58.8511 11.5498C58.1763 11.5498 57.612 11.7718 57.1583 12.2158C56.7045 12.6478 56.4777 13.2718 56.4777 14.0878V14.2678C56.4777 15.0718 56.7045 15.6957 57.1583 16.1397C57.612 16.5837 58.1763 16.8057 58.8511 16.8057Z" fill="black" fill-opacity="0.87"/>
<path d="M69.1595 19.0017C68.2986 19.0017 67.5249 18.8217 66.8384 18.4617C66.152 18.1017 65.611 17.5797 65.2155 16.8957C64.8199 16.2118 64.6221 15.3898 64.6221 14.4298V14.1418C64.6221 13.1818 64.8199 12.3598 65.2155 11.6758C65.611 10.9918 66.152 10.4698 66.8384 10.1098C67.5249 9.74989 68.2986 9.56989 69.1595 9.56989C70.0204 9.56989 70.794 9.74989 71.4805 10.1098C72.1669 10.4698 72.7079 10.9918 73.1035 11.6758C73.4991 12.3598 73.6968 13.1818 73.6968 14.1418V14.4298C73.6968 15.3898 73.4991 16.2118 73.1035 16.8957C72.7079 17.5797 72.1669 18.1017 71.4805 18.4617C70.794 18.8217 70.0204 19.0017 69.1595 19.0017ZM69.1595 16.9857C69.8343 16.9857 70.3927 16.7637 70.8348 16.3198C71.2769 15.8637 71.4979 15.2157 71.4979 14.3758V14.1958C71.4979 13.3558 71.2769 12.7138 70.8348 12.2698C70.4043 11.8138 69.8459 11.5858 69.1595 11.5858C68.4846 11.5858 67.9263 11.8138 67.4841 12.2698C67.042 12.7138 66.821 13.3558 66.821 14.1958V14.3758C66.821 15.2157 67.042 15.8637 67.4841 16.3198C67.9263 16.7637 68.4846 16.9857 69.1595 16.9857Z" fill="black" fill-opacity="0.87"/>
<path d="M74.9415 18.7497V9.82185H77.1406V18.7497H74.9415ZM76.0411 8.77793C75.6451 8.77793 75.3084 8.64588 75.0286 8.38186C74.7612 8.11792 74.6274 7.7699 74.6274 7.33792C74.6274 6.90593 74.7612 6.55794 75.0286 6.29394C75.3084 6.02995 75.6451 5.89795 76.0411 5.89795C76.4484 5.89795 76.7859 6.02995 77.0529 6.29394C77.3206 6.55794 77.4549 6.90593 77.4549 7.33792C77.4549 7.7699 77.3206 8.11792 77.0529 8.38186C76.7859 8.64588 76.4484 8.77793 76.0411 8.77793Z" fill="black" fill-opacity="0.87"/>
<path d="M78.792 22.3496V9.82183H80.9557V10.9018H81.27C81.4672 10.5539 81.7755 10.2478 82.1947 9.98382C82.6132 9.70789 83.2125 9.56989 83.9925 9.56989C84.69 9.56989 85.3357 9.74989 85.929 10.1098C86.523 10.4579 87 10.9738 87.36 11.6578C87.7207 12.3418 87.9015 13.1698 87.9015 14.1418V14.4298C87.9015 15.4018 87.7207 16.2297 87.36 16.9137C87 17.5977 86.523 18.1197 85.929 18.4797C85.3357 18.8276 84.69 19.0017 83.9925 19.0017C83.469 19.0017 83.0265 18.9357 82.6657 18.8037C82.317 18.6837 82.032 18.5277 81.8107 18.3357C81.6015 18.1317 81.4327 17.9277 81.3045 17.7237H80.9902V22.3496H78.792ZM83.3287 17.0217C84.0157 17.0217 84.5797 16.7997 85.0215 16.3557C85.4752 15.8997 85.7025 15.2398 85.7025 14.3758V14.1958C85.7025 13.3318 85.4752 12.6778 85.0215 12.2338C84.5677 11.7778 84.0037 11.5498 83.3287 11.5498C82.6545 11.5498 82.0897 11.7778 81.636 12.2338C81.1822 12.6778 80.9557 13.3318 80.9557 14.1958V14.3758C80.9557 15.2398 81.1822 15.8997 81.636 16.3557C82.0897 16.7997 82.6545 17.0217 83.3287 17.0217Z" fill="black" fill-opacity="0.87"/>
<path d="M92.7302 19.0017C91.6015 19.0017 90.6767 18.7497 89.9552 18.2457C89.2345 17.7417 88.798 17.0217 88.6465 16.0858L90.6707 15.5457C90.7525 15.9658 90.886 16.2957 91.0727 16.5357C91.27 16.7757 91.5085 16.9497 91.7882 17.0577C92.0785 17.1537 92.3927 17.2017 92.7302 17.2017C93.2425 17.2017 93.6205 17.1117 93.8642 16.9317C94.1087 16.7397 94.231 16.5057 94.231 16.2297C94.231 15.9537 94.1147 15.7438 93.8822 15.5997C93.649 15.4438 93.277 15.3178 92.7655 15.2218L92.2765 15.1317C91.6712 15.0117 91.1192 14.8498 90.619 14.6458C90.118 14.4298 89.7167 14.1358 89.4145 13.7638C89.1122 13.3918 88.9607 12.9118 88.9607 12.3238C88.9607 11.4358 89.275 10.7578 89.9035 10.2898C90.5312 9.80984 91.3577 9.56989 92.3815 9.56989C93.3467 9.56989 94.15 9.79182 94.7897 10.2358C95.4295 10.6799 95.848 11.2618 96.046 11.9819L94.0045 12.6298C93.9115 12.1738 93.7195 11.8498 93.4285 11.6578C93.1487 11.4658 92.8 11.3698 92.3815 11.3698C91.9622 11.3698 91.6427 11.4479 91.4215 11.6038C91.2002 11.7478 91.09 11.9518 91.09 12.2158C91.09 12.5038 91.2062 12.7198 91.4387 12.8638C91.6712 12.9958 91.9855 13.0978 92.3815 13.1698L92.8697 13.2598C93.5215 13.3798 94.1087 13.5418 94.6322 13.7458C95.1677 13.9378 95.5862 14.2198 95.8892 14.5918C96.2027 14.9518 96.3602 15.4438 96.3602 16.0677C96.3602 17.0037 96.0287 17.7297 95.3657 18.2457C94.714 18.7497 93.8357 19.0017 92.7302 19.0017Z" fill="black" fill-opacity="0.87"/>
<path d="M100.8 18.8937C100.125 18.8937 99.5316 18.7377 99.0194 18.4257C98.5191 18.1017 98.1299 17.6577 97.8501 17.0937C97.5711 16.5297 97.4316 15.8818 97.4316 15.1497V9.82184H99.6306V14.9697C99.6306 15.6417 99.7874 16.1457 100.102 16.4817C100.427 16.8177 100.887 16.9857 101.48 16.9857C102.155 16.9857 102.679 16.7578 103.051 16.3017C103.423 15.8337 103.609 15.1857 103.609 14.3578V9.82184H105.808V18.7497H103.644V17.5797H103.33C103.191 17.8797 102.928 18.1737 102.545 18.4617C102.161 18.7497 101.579 18.8937 100.8 18.8937Z" fill="black" fill-opacity="0.87"/>
<path d="M107.47 18.7496V9.82182H109.633V10.7938H109.948C110.099 10.4938 110.35 10.2358 110.698 10.0198C111.047 9.7918 111.507 9.67786 112.077 9.67786C112.693 9.67786 113.188 9.80387 113.56 10.0558C113.932 10.2959 114.217 10.6138 114.415 11.0099H114.73C114.928 10.6259 115.207 10.3078 115.567 10.0558C115.928 9.80387 116.44 9.67786 117.103 9.67786C117.638 9.67786 118.121 9.79784 118.552 10.0379C118.993 10.2658 119.343 10.6198 119.599 11.0998C119.866 11.5678 120 12.1618 120 12.8818V18.7496H117.801V13.0438C117.801 12.5518 117.679 12.1858 117.435 11.9458C117.19 11.6938 116.847 11.5678 116.405 11.5678C115.905 11.5678 115.515 11.7358 115.236 12.0718C114.968 12.3958 114.835 12.8638 114.835 13.4757V18.7496H112.636V13.0438C112.636 12.5518 112.513 12.1858 112.269 11.9458C112.024 11.6938 111.682 11.5678 111.239 11.5678C110.739 11.5678 110.349 11.7358 110.07 12.0718C109.802 12.3958 109.669 12.8638 109.669 13.4757V18.7496H107.47Z" fill="black" fill-opacity="0.87"/>
<path d="M29.0854 12C29.0854 8.81744 27.8596 5.76516 25.6777 3.51472C23.4958 1.26429 20.5366 4.17348e-07 17.4509 0C14.3653 -4.17347e-07 11.406 1.26429 9.22409 3.51472C7.04218 5.76516 5.81641 8.81744 5.81641 12H9.45224C10.657 12 11.5966 10.9587 12.0379 9.80234C12.3277 9.04317 12.7673 8.3455 13.3375 7.75736C14.4284 6.63215 15.9081 6.00001 17.4509 6.00001C18.9937 6.00001 20.4734 6.63215 21.5644 7.75736C22.6553 8.88258 23.2681 10.4087 23.2681 12H29.0854Z" fill="url(#paint0_linear_390_4834)"/>
<path d="M22.3833 16.5922C22.968 15.1363 23.269 13.5759 23.269 12H29.0856C29.0856 18.6274 23.8766 24 17.4511 24C16.4448 24 15.4683 23.8682 14.5371 23.6206C15.064 23.4805 15.5819 23.3022 16.0868 23.0866C17.4983 22.4835 18.7809 21.5996 19.8613 20.4853C20.9417 19.371 21.7987 18.0481 22.3833 16.5922Z" fill="#FBCF8E"/>
<path d="M0 12C-2.18575e-07 13.5759 0.300935 15.1363 0.885623 16.5922C1.47031 18.0481 2.3273 19.371 3.40767 20.4853C4.48803 21.5996 5.77061 22.4835 7.18217 23.0866C8.59373 23.6896 10.1066 24 11.6345 24C13.1623 24 14.6753 23.6896 16.0868 23.0866C17.4984 22.4835 18.781 21.5996 19.8614 20.4853C20.9417 19.371 21.7987 18.0481 22.3834 16.5922C22.9681 15.1363 23.2691 13.5759 23.2691 12H19.6332C18.4284 12 17.4888 13.0413 17.0475 14.1976C17.035 14.2305 17.0221 14.2633 17.0089 14.2961C16.7166 15.0241 16.2881 15.6855 15.7479 16.2426C15.2078 16.7998 14.5664 17.2418 13.8607 17.5433C13.1549 17.8448 12.3985 18 11.6345 18C10.8706 18 10.1141 17.8448 9.40837 17.5433C8.70255 17.2418 8.0613 16.7998 7.52108 16.2426C6.9809 15.6855 6.55241 15.0241 6.26007 14.2961C5.96772 13.5681 5.81726 12.7879 5.81726 12H0Z" fill="url(#paint1_linear_390_4834)"/>
<path d="M0.000976562 12C0.000976562 5.37257 5.20991 0 11.6354 0C12.6415 0 13.6177 0.131696 14.5488 0.379295C12.5509 0.91015 10.7078 1.98446 9.22411 3.51473C7.04223 5.76515 5.81646 8.81744 5.81646 12H0.000976562Z" fill="#73E5E2"/>
<defs>
<linearGradient id="paint0_linear_390_4834" x1="29.0854" y1="6.00001" x2="5.81641" y2="6.00001" gradientUnits="userSpaceOnUse">
<stop stop-color="#73E5E2"/>
<stop offset="1" stop-color="#394F87"/>
</linearGradient>
<linearGradient id="paint1_linear_390_4834" x1="7.6284e-07" y1="18" x2="23.2691" y2="18" gradientUnits="userSpaceOnUse">
<stop stop-color="#FBDC8E"/>
<stop offset="1" stop-color="#FB958E"/>
</linearGradient>
</defs>
</svg>
