<svg width="20" height="20" viewBox="0 0 20 20" fill="none" xmlns="http://www.w3.org/2000/svg">
<g clip-path="url(#clip0_19_153)">
<path d="M6.2918 18.13C13.8371 18.13 17.9652 11.8773 17.9652 6.45656C17.9652 6.28077 17.9613 6.10109 17.9535 5.92531C18.7566 5.34456 19.4496 4.62522 20 3.80109C19.2521 4.13384 18.458 4.35116 17.6449 4.44562C18.5011 3.93243 19.1421 3.12623 19.4492 2.17648C18.6438 2.6538 17.763 2.99051 16.8445 3.17218C16.2257 2.51464 15.4075 2.07927 14.5164 1.93338C13.6253 1.78749 12.711 1.93921 11.9148 2.36509C11.1186 2.79096 10.4848 3.46726 10.1115 4.28943C9.73825 5.1116 9.64619 6.03385 9.84961 6.91359C8.21874 6.83175 6.62328 6.40809 5.16665 5.67009C3.71002 4.93208 2.42474 3.8962 1.39414 2.6296C0.870333 3.53271 0.710047 4.60138 0.945859 5.61841C1.18167 6.63545 1.79589 7.52454 2.66367 8.10499C2.01219 8.08431 1.37498 7.90891 0.804688 7.59327V7.64406C0.804104 8.5918 1.13175 9.51049 1.73192 10.244C2.3321 10.9775 3.16777 11.4805 4.09687 11.6675C3.49338 11.8326 2.85999 11.8567 2.2457 11.7378C2.50788 12.5529 3.01798 13.2657 3.70481 13.7769C4.39164 14.2882 5.22093 14.5722 6.07695 14.5894C4.62369 15.7309 2.82848 16.3501 0.980469 16.3472C0.652739 16.3467 0.325333 16.3266 0 16.287C1.87738 17.4915 4.06128 18.1312 6.2918 18.13Z" fill="#1D2130"/>
</g>
<defs>
<clipPath id="clip0_19_153">
<rect width="20" height="20" fill="white" transform="translate(0 0.00488281)"/>
</clipPath>
</defs>
</svg>
