<svg width="46" height="43" viewBox="0 0 46 43" fill="none" xmlns="http://www.w3.org/2000/svg">
<path d="M23 0.25C10.58 0.25 0.5 9.77 0.5 21.5C0.5 33.23 10.58 42.75 23 42.75C35.42 42.75 45.5 33.23 45.5 21.5C45.5 9.77 35.42 0.25 23 0.25ZM23 35.3125C21.1325 35.3125 19.625 33.8887 19.625 32.125H26.375C26.375 33.8887 24.8675 35.3125 23 35.3125ZM34.25 30H11.75V27.875L14 25.75V20.2038C14 15.6988 16.3175 11.8737 20.75 10.875V9.8125C20.75 8.60125 21.7175 7.6875 23 7.6875C24.2825 7.6875 25.25 8.60125 25.25 9.8125V10.875C29.6825 11.8737 32 15.72 32 20.2038V25.75L34.25 27.875V30Z" fill="black"/>
</svg>
