<svg width="20" height="20" viewBox="0 0 20 20" fill="none" xmlns="http://www.w3.org/2000/svg">
<path d="M17.8737 14.1639V15.1428C17.8737 15.7906 17.4432 16.3447 16.8399 16.5609C16.8402 16.5856 16.8408 16.6101 16.8408 16.6347V19.304C18.0952 19.0567 19.0408 17.9986 19.0408 16.7348V14.1638L17.8737 14.1639Z" fill="#FFEBB9"/>
<path d="M9.76751 6.80735V5.7838C9.76751 4.89782 9.42189 4.03908 8.794 3.36546C8.20623 2.73489 7.43306 2.33423 6.59765 2.22304C6.41271 2.05301 6.07503 1.74279 5.73644 1.43316C5.44362 1.16528 5.20955 0.951901 5.04033 0.79897C4.94329 0.71127 4.86196 0.638211 4.80428 0.587331C4.67809 0.476003 4.44341 0.268567 4.09566 0.402654L3.7235 0.546452L3.77233 2.7446L3.68062 2.80752C3.08217 3.21833 2.68132 3.85064 2.57833 4.5447L0.981953 5.55636L0.976613 6.25144C0.972798 6.78155 1.18703 7.2805 1.5801 7.65667C1.97332 8.03283 2.497 8.23998 3.05501 8.23998H4.27068V9.25918C4.27068 9.76552 4.35628 10.2658 4.52474 10.7462L5.42592 13.3144V17.2155C4.48049 17.4266 3.77309 18.2341 3.77095 19.1954L3.76897 19.3573L7.24843 19.3577C7.34365 18.492 8.01214 17.7852 8.88555 17.5879V16.9076C8.88555 15.0464 10.4793 13.5323 12.4384 13.5323H12.5243V14.6411H12.4384C11.1229 14.6411 10.0527 15.6578 10.0527 16.9076V18.6416H9.38115C8.91942 18.6416 8.53109 18.9479 8.42946 19.3579L15.7081 19.359V16.6348C15.7081 14.2147 14.7532 11.9054 13.0193 10.1324L9.76751 6.80735Z" fill="#FFEBB9"/>
</svg>
