<svg width="18" height="18" viewBox="0 0 18 18" fill="none" xmlns="http://www.w3.org/2000/svg">
<path d="M8.88224 6.60066C9.05157 6.66339 9.2177 6.50987 9.16156 6.34653C8.77631 5.2253 7.38145 4.80703 6.08476 5.80178C5.40268 6.3251 5.14637 6.4363 5.13991 6.4391C5.58957 6.8637 6.10327 8.28852 7.22436 8.44609C8.45933 8.65756 9.55235 7.51005 8.6581 6.98495C8.06998 6.63965 7.37755 6.43906 6.63532 6.43906C7.41345 6.27341 8.19025 6.34444 8.88224 6.60066Z" fill="#FFEBB9"/>
<path d="M14.4744 5.8017C12.2361 4.08456 10.8086 6.7925 11.6959 6.52408C12.3261 6.33343 13.0151 6.2919 13.7061 6.43901C12.5352 6.43901 11.4559 6.9458 10.7363 7.77069C10.7954 6.47436 10.8848 5.66293 10.9884 5.05933C11.5865 5.03991 12.3837 4.58376 12.8215 3.78557C13.5762 2.50995 13.2262 1.20202 13.1136 0.376709C12.5238 0.919064 9.94777 0.283567 8.92655 1.93631C8.47545 2.66639 8.60655 3.5548 9.08111 4.20493C9.23133 4.41075 9.59052 4.31199 9.60075 4.06223C9.64533 2.9757 10.2179 2.15479 11.2853 1.70011C10.8063 2.28623 10.4918 2.94244 10.3294 3.62067C10.0768 4.6772 9.81306 5.37027 9.7162 8.73775C9.70636 9.07926 9.99929 9.36195 10.361 9.35766C10.6229 9.35455 10.8472 9.19762 10.9479 8.96932C11.101 8.62208 11.3503 8.26271 11.756 7.93346C12.1414 8.33587 12.728 8.54999 13.335 8.44604C14.4513 8.28915 14.9723 6.86122 15.4194 6.43898C15.4128 6.43625 15.1565 6.32505 14.4744 5.8017Z" fill="#FFEBB9"/>
<path d="M17.7649 9.99755C17.0651 9.54917 16.3035 9.86868 15.9538 10.0594L11.5647 13.0933L8.99474 13.0939L8.35226 12.4871H10.7124C11.4222 12.4871 12.2172 12.0504 12.2172 11.2732C12.2172 10.4481 11.4222 10.0594 10.7124 10.0594H9.82796C9.17094 10.0594 8.40314 10.1147 7.86176 9.84103C7.34742 9.59384 6.75513 9.45318 6.12289 9.45318C5.06123 9.45318 4.11104 9.85291 3.45992 10.4833L0 13.7001L3.85489 17.3409L5.13985 15.5205H11.2119C11.8595 15.5205 12.4846 15.2961 12.9687 14.89L17.8088 10.8292C18.0779 10.6035 18.0627 10.1884 17.7649 9.99755Z" fill="#FFEBB9"/>
</svg>
