<svg width="15" height="16" viewBox="0 0 15 16" fill="none" xmlns="http://www.w3.org/2000/svg">
<path d="M7.93945 12.9565H8.81836V15.3589H7.93945V12.9565Z" fill="#FFEBB9"/>
<path d="M6.18164 12.9565H7.06055V15.3589H6.18164V12.9565Z" fill="#FFEBB9"/>
<path d="M10.459 0.358887H4.54102C4.29832 0.358887 4.10156 0.555645 4.10156 0.79834V15.3589H5.30273V12.5171C5.30273 12.2744 5.49949 12.0776 5.74219 12.0776H9.25781C9.50051 12.0776 9.69727 12.2744 9.69727 12.5171V15.3589H10.8984V0.79834C10.8984 0.555645 10.7017 0.358887 10.459 0.358887ZM6.18164 10.7593C6.18164 11.002 5.98488 11.1987 5.74219 11.1987C5.49949 11.1987 5.30273 11.002 5.30273 10.7593V9.88037C5.30273 9.63768 5.49949 9.44092 5.74219 9.44092C5.98488 9.44092 6.18164 9.63768 6.18164 9.88037V10.7593ZM6.18164 8.12256C6.18164 8.36525 5.98488 8.56201 5.74219 8.56201C5.49949 8.56201 5.30273 8.36525 5.30273 8.12256V7.24365C5.30273 7.00096 5.49949 6.8042 5.74219 6.8042C5.98488 6.8042 6.18164 7.00096 6.18164 7.24365V8.12256ZM7.93945 10.7593C7.93945 11.002 7.7427 11.1987 7.5 11.1987C7.2573 11.1987 7.06055 11.002 7.06055 10.7593V9.88037C7.06055 9.63768 7.2573 9.44092 7.5 9.44092C7.7427 9.44092 7.93945 9.63768 7.93945 9.88037V10.7593ZM7.93945 8.12256C7.93945 8.36525 7.7427 8.56201 7.5 8.56201C7.2573 8.56201 7.06055 8.36525 7.06055 8.12256V7.24365C7.06055 7.00096 7.2573 6.8042 7.5 6.8042C7.7427 6.8042 7.93945 7.00096 7.93945 7.24365V8.12256ZM9.69727 10.7593C9.69727 11.002 9.50051 11.1987 9.25781 11.1987C9.01512 11.1987 8.81836 11.002 8.81836 10.7593V9.88037C8.81836 9.63768 9.01512 9.44092 9.25781 9.44092C9.50051 9.44092 9.69727 9.63768 9.69727 9.88037V10.7593ZM9.69727 8.12256C9.69727 8.36525 9.50051 8.56201 9.25781 8.56201C9.01512 8.56201 8.81836 8.36525 8.81836 8.12256V7.24365C8.81836 7.00096 9.01512 6.8042 9.25781 6.8042C9.50051 6.8042 9.69727 7.00096 9.69727 7.24365V8.12256ZM6.18164 5.48584C6.18164 5.72854 5.98488 5.92529 5.74219 5.92529C5.49949 5.92529 5.30273 5.72854 5.30273 5.48584V4.60693C5.30273 4.36424 5.49949 4.16748 5.74219 4.16748C5.98488 4.16748 6.18164 4.36424 6.18164 4.60693V5.48584ZM7.93945 5.48584C7.93945 5.72854 7.7427 5.92529 7.5 5.92529C7.2573 5.92529 7.06055 5.72854 7.06055 5.48584V4.60693C7.06055 4.36424 7.2573 4.16748 7.5 4.16748C7.7427 4.16748 7.93945 4.36424 7.93945 4.60693V5.48584ZM9.69727 5.48584C9.69727 5.72854 9.50051 5.92529 9.25781 5.92529C9.01512 5.92529 8.81836 5.72854 8.81836 5.48584V4.60693C8.81836 4.36424 9.01512 4.16748 9.25781 4.16748C9.50051 4.16748 9.69727 4.36424 9.69727 4.60693V5.48584ZM6.18164 2.84912C6.18164 3.09182 5.98488 3.28857 5.74219 3.28857C5.49949 3.28857 5.30273 3.09182 5.30273 2.84912V1.97021C5.30273 1.72752 5.49949 1.53076 5.74219 1.53076C5.98488 1.53076 6.18164 1.72752 6.18164 1.97021V2.84912ZM7.93945 2.84912C7.93945 3.09182 7.7427 3.28857 7.5 3.28857C7.2573 3.28857 7.06055 3.09182 7.06055 2.84912V1.97021C7.06055 1.72752 7.2573 1.53076 7.5 1.53076C7.7427 1.53076 7.93945 1.72752 7.93945 1.97021V2.84912ZM9.69727 2.84912C9.69727 3.09182 9.50051 3.28857 9.25781 3.28857C9.01512 3.28857 8.81836 3.09182 8.81836 2.84912V1.97021C8.81836 1.72752 9.01512 1.53076 9.25781 1.53076C9.50051 1.53076 9.69727 1.72752 9.69727 1.97021V2.84912Z" fill="#FFEBB9"/>
<path d="M14.5605 6.21826H11.7773V15.3589H14.5605C14.8032 15.3589 15 15.1621 15 14.9194V6.65771C15 6.41502 14.8032 6.21826 14.5605 6.21826ZM13.8281 11.9312C13.8281 12.1738 13.6314 12.3706 13.3887 12.3706C13.146 12.3706 12.9492 12.1738 12.9492 11.9312V11.0522C12.9492 10.8096 13.146 10.6128 13.3887 10.6128C13.6314 10.6128 13.8281 10.8096 13.8281 11.0522V11.9312ZM13.8281 9.29443C13.8281 9.53713 13.6314 9.73389 13.3887 9.73389C13.146 9.73389 12.9492 9.53713 12.9492 9.29443V8.41553C12.9492 8.17283 13.146 7.97607 13.3887 7.97607C13.6314 7.97607 13.8281 8.17283 13.8281 8.41553V9.29443Z" fill="#FFEBB9"/>
<path d="M0.439453 6.21826C0.196758 6.21826 0 6.41502 0 6.65771V14.9194C0 15.1621 0.196758 15.3589 0.439453 15.3589H3.22266V6.21826H0.439453ZM2.05078 11.9312C2.05078 12.1738 1.85402 12.3706 1.61133 12.3706C1.36863 12.3706 1.17188 12.1738 1.17188 11.9312V11.0522C1.17188 10.8096 1.36863 10.6128 1.61133 10.6128C1.85402 10.6128 2.05078 10.8096 2.05078 11.0522V11.9312ZM2.05078 9.29443C2.05078 9.53713 1.85402 9.73389 1.61133 9.73389C1.36863 9.73389 1.17188 9.53713 1.17188 9.29443V8.41553C1.17188 8.17283 1.36863 7.97607 1.61133 7.97607C1.85402 7.97607 2.05078 8.17283 2.05078 8.41553V9.29443Z" fill="#FFEBB9"/>
</svg>
