<svg width="18" height="14" viewBox="0 0 18 14" fill="none" xmlns="http://www.w3.org/2000/svg">
<path d="M17.7969 12.8003C17.519 12.6071 17.2745 12.37 17.0728 12.0982C16.5901 11.5497 15.9758 10.8695 14.8348 10.8695C13.6939 10.8695 13.1015 11.5277 12.5968 12.1201C12.0922 12.7125 11.7631 13.0636 11.0171 13.0636C10.2711 13.0636 9.8981 12.6467 9.43735 12.1201C8.97661 11.5935 8.36224 10.8695 7.19936 10.8695C6.03648 10.8695 5.46604 11.5277 4.96136 12.1201C4.45673 12.7125 4.12761 13.0636 3.38162 13.0636C2.63564 13.0636 2.26263 12.6467 1.80188 12.1201C1.48867 11.7065 1.0926 11.3627 0.638999 11.1108C0.420869 11.0018 0.155661 11.0902 0.0465957 11.3083C-0.0624693 11.5264 0.0259334 11.7916 0.244063 11.9007C0.588561 12.1083 0.893203 12.3758 1.14363 12.6906C1.64826 13.283 2.24066 13.9412 3.38162 13.9412C4.52258 13.9412 5.11495 13.283 5.61962 12.6906C6.12425 12.0982 6.45337 11.7471 7.19936 11.7471C7.94534 11.7471 8.31836 12.164 8.7791 12.6906C9.23984 13.2172 9.85421 13.9412 11.0171 13.9412C12.18 13.9412 12.7504 13.283 13.2551 12.6906C13.7597 12.0982 14.0888 11.7471 14.8348 11.7471C15.5808 11.7471 15.9538 12.164 16.4146 12.6906C16.6703 13.0189 16.9735 13.3073 17.3141 13.5462C17.5201 13.6795 17.7952 13.6206 17.9285 13.4146C18.0618 13.2086 18.0029 12.9336 17.7969 12.8003Z" fill="#FFEBB9"/>
<path d="M17.7969 9.50912C17.519 9.31598 17.2745 9.07883 17.0728 8.80703C16.5901 8.25851 15.9758 7.57833 14.8348 7.57833C13.6939 7.57833 13.1015 8.23655 12.5968 8.82899C12.0922 9.42139 11.7631 9.77244 11.0171 9.77244C10.2711 9.77244 9.8981 9.35554 9.43735 8.82899C8.97661 8.3024 8.36224 7.57833 7.19936 7.57833C6.03648 7.57833 5.46604 8.23655 4.96136 8.82899C4.45673 9.42139 4.12761 9.77244 3.38162 9.77244C2.63564 9.77244 2.26263 9.35554 1.80188 8.82899C1.48867 8.41532 1.0926 8.07158 0.638999 7.81969C0.420869 7.71062 0.155661 7.79903 0.0465957 8.01716C-0.0624693 8.23529 0.0259334 8.50049 0.244063 8.60956C0.588561 8.81719 0.893203 9.08471 1.14363 9.39943C1.64826 9.99183 2.24066 10.6501 3.38162 10.6501C4.52258 10.6501 5.11495 9.99187 5.61962 9.39943C6.12425 8.80703 6.45337 8.45598 7.19936 8.45598C7.94534 8.45598 8.31836 8.87288 8.7791 9.39943C9.23984 9.92602 9.85421 10.6501 11.0171 10.6501C12.18 10.6501 12.7504 9.99187 13.2551 9.39943C13.7597 8.80703 14.0888 8.45598 14.8348 8.45598C15.5808 8.45598 15.9538 8.87288 16.4146 9.39943C16.6703 9.72776 16.9735 10.0161 17.3141 10.2551C17.5201 10.3884 17.7952 10.3295 17.9285 10.1235C18.0618 9.9175 18.0029 9.64242 17.7969 9.50912Z" fill="#FFEBB9"/>
<path d="M17.7969 5.99845C17.519 5.80531 17.2745 5.56815 17.0728 5.29635C16.5901 4.74784 15.9758 4.06766 14.8348 4.06766C13.6939 4.06766 13.1015 4.72587 12.5968 5.31832C12.0922 5.91076 11.7631 6.26177 11.0171 6.26177C10.2711 6.26177 9.8981 5.84487 9.43735 5.31832C8.97661 4.79177 8.36224 4.06766 7.19936 4.06766C6.03648 4.06766 5.46604 4.72587 4.96136 5.31832C4.45673 5.91072 4.12761 6.26177 3.38162 6.26177C2.63564 6.26177 2.26263 5.84487 1.80188 5.31832C1.48867 4.90465 1.0926 4.56091 0.638999 4.30902C0.420869 4.19995 0.155661 4.28835 0.0465957 4.50648C-0.0624693 4.72461 0.0259334 4.98982 0.244063 5.09889C0.588561 5.30652 0.893203 5.57403 1.14363 5.88876C1.64826 6.48116 2.24066 7.13941 3.38162 7.13941C4.52258 7.13941 5.11495 6.4812 5.61962 5.88876C6.12425 5.29635 6.45337 4.9453 7.19936 4.9453C7.94534 4.9453 8.31836 5.3622 8.7791 5.88876C9.23984 6.41531 9.85421 7.13941 11.0171 7.13941C12.18 7.13941 12.7504 6.4812 13.2551 5.88876C13.7598 5.29631 14.0888 4.9453 14.8348 4.9453C15.5808 4.9453 15.9538 5.3622 16.4146 5.88876C16.6703 6.21708 16.9735 6.50548 17.3141 6.74444C17.5201 6.87773 17.7952 6.81881 17.9285 6.61278C18.0618 6.40683 18.0029 6.13175 17.7969 5.99845Z" fill="#FFEBB9"/>
<path d="M0.244236 1.80784C0.588733 2.01547 0.893376 2.28298 1.1438 2.59771C1.64843 3.19011 2.24083 3.84836 3.3818 3.84836C4.52276 3.84836 5.11512 3.19015 5.61979 2.59771C6.12442 2.0053 6.45355 1.65425 7.19953 1.65425C7.94552 1.65425 8.31853 2.07115 8.77927 2.59771C9.24002 3.1243 9.85438 3.84836 11.0173 3.84836C12.1802 3.84836 12.7506 3.19015 13.2553 2.59771C13.7599 2.0053 14.089 1.65425 14.835 1.65425C15.581 1.65425 15.954 2.07115 16.4147 2.59771C16.6705 2.92603 16.9736 3.21442 17.3143 3.45343C17.5203 3.58672 17.7954 3.52776 17.9287 3.32177C18.062 3.11577 18.0031 2.8407 17.797 2.7074C17.5191 2.51426 17.2746 2.2771 17.073 2.0053C16.5902 1.45679 15.9759 0.776611 14.835 0.776611C13.694 0.776611 13.1016 1.43482 12.597 2.02727C12.0923 2.61967 11.7632 2.97072 11.0172 2.97072C10.2712 2.97072 9.89823 2.55382 9.43748 2.02727C8.97674 1.50067 8.36237 0.776611 7.19949 0.776611C6.03661 0.776611 5.46617 1.43482 4.96149 2.02727C4.45686 2.61967 4.12774 2.97072 3.38175 2.97072C2.63577 2.97072 2.26284 2.55382 1.80205 2.02723C1.48884 1.61356 1.09278 1.26982 0.639171 1.01792C0.421041 0.908858 0.155833 0.997261 0.0467679 1.21539C-0.062297 1.43352 0.0261476 1.69877 0.244236 1.80784Z" fill="#FFEBB9"/>
</svg>
